{
  "accessors": [
    {
      "bufferView": 2,
      "componentType": 5126,
      "count": 65532,
      "max": [
        578.3018188476563,
        483.8693542480469,
        357.8048095703125
      ],
      "min": [
        -105.41566467285156,
        -106.43024444580078,
        -364.11248779296875
      ],
      "type": "VEC3"
    },
    {
      "bufferView": 2,
      "byteOffset": 786384,
      "componentType": 5126,
      "count": 65532,
      "max": [
        1.0,
        1.0,
        1.0
      ],
      "min": [
        -1.0,
        -1.0,
        -1.0
      ],
      "type": "VEC3"
    },
    {
      "bufferView": 1,
      "componentType": 5126,
      "count": 65532,
      "max": [
        2.0048863887786865,
        1.736931562423706
      ],
      "min": [
        -0.4968857765197754,
        -0.98319011926651
      ],
      "type": "VEC2"
    },
    {
      "bufferView": 1,
      "byteOffset": 524256,
      "componentType": 5126,
      "count": 65532,
      "max": [
        2.0048863887786865,
        1.736931562423706
      ],
      "min": [
        -0.4968857765197754,
        -0.98319011926651
      ],
      "type": "VEC2"
    },
    {
      "bufferView": 0,
      "componentType": 5125,
      "count": 192690,
      "type": "SCALAR"
    },
    {
      "bufferView": 2,
      "byteOffset": 1572768,
      "componentType": 5126,
      "count": 1204,
      "max": [
        225.9066925048828,
        334.2074279785156,
        236.96621704101563
      ],
      "min": [
        -103.37451171875,
        -1.7300195693969727,
        -99.14998626708984
      ],
      "type": "VEC3"
    },
    {
      "bufferView": 2,
      "byteOffset": 1587216,
      "componentType": 5126,
      "count": 1204,
      "max": [
        0.9999972581863403,
        1.0,
        1.0
      ],
      "min": [
        -0.9999999403953552,
        -1.0,
        -1.0
      ],
      "type": "VEC3"
    },
    {
      "bufferView": 1,
      "byteOffset": 1048512,
      "componentType": 5126,
      "count": 1204,
      "max": [
        1.1541484594345093,
        1.4918689727783203
      ],
      "min": [
        1.0948909521102905,
        1.3172742128372192
      ],
      "type": "VEC2"
    },
    {
      "bufferView": 1,
      "byteOffset": 1058144,
      "componentType": 5126,
      "count": 1204,
      "max": [
        1.1541484594345093,
        1.4918689727783203
      ],
      "min": [
        1.0948909521102905,
        1.3172742128372192
      ],
      "type": "VEC2"
    },
    {
      "bufferView": 0,
      "byteOffset": 770760,
      "componentType": 5125,
      "count": 2916,
      "type": "SCALAR"
    },
    {
      "bufferView": 2,
      "byteOffset": 1601664,
      "componentType": 5126,
      "count": 347,
      "max": [
        2.563457489013672,
        20.80106544494629,
        120.97428894042969
      ],
      "min": [
        -17.350099563598633,
        2.8130359649658203,
        100.90025329589844
      ],
      "type": "VEC3"
    },
    {
      "bufferView": 2,
      "byteOffset": 1605828,
      "componentType": 5126,
      "count": 347,
      "max": [
        0.9999650120735168,
        1.0,
        1.0
      ],
      "min": [
        -1.0,
        -1.0,
        -0.9999916553497314
      ],
      "type": "VEC3"
    },
    {
      "bufferView": 1,
      "byteOffset": 1067776,
      "componentType": 5126,
      "count": 347,
      "max": [
        -0.25751248002052307,
        0.9799913763999939
      ],
      "min": [
        -0.5235509276390076,
        0.6892871856689453
      ],
      "type": "VEC2"
    },
    {
      "bufferView": 0,
      "byteOffset": 782424,
      "componentType": 5125,
      "count": 972,
      "type": "SCALAR"
    }
  ],
  "asset": {
    "extras": {
      "author": "astridshulzhuk (https://sketchfab.com/astridshulzhuk)",
      "license": "CC-BY-4.0 (http://creativecommons.org/licenses/by/4.0/)",
      "source": "https://sketchfab.com/3d-models/dae-crib-solarpunk-arboretum-a7207e10608f490c9014306cf926ce27",
      "title": "DAE Crib - \"Solarpunk Arboretum\""
    },
    "generator": "Sketchfab-16.16.0",
    "version": "2.0"
  },
  "bufferViews": [
    {
      "buffer": 0,
      "byteLength": 786312,
      "name": "floatBufferViews",
      "target": 34963
    },
    {
      "buffer": 0,
      "byteLength": 1070552,
      "byteOffset": 786312,
      "byteStride": 8,
      "name": "floatBufferViews",
      "target": 34962
    },
    {
      "buffer": 0,
      "byteLength": 1609992,
      "byteOffset": 1856864,
      "byteStride": 12,
      "name": "floatBufferViews",
      "target": 34962
    }
  ],
  "buffers": [
    {
      "byteLength": 3466856,
      "uri": "scene.bin"
    }
  ],
  "extensionsUsed": [
    "KHR_materials_emissive_strength"
  ],
  "images": [
    {
      "uri": "textures/M_Texture_baseColor.png"
    },
    {
      "uri": "textures/M_Texture_emissive.png"
    }
  ],
  "materials": [
    {
      "alphaMode": "BLEND",
      "doubleSided": true,
      "emissiveFactor": [
        1.0,
        1.0,
        1.0
      ],
      "emissiveTexture": {
        "index": 1
      },
      "extensions": {
        "KHR_materials_emissive_strength": {
          "emissiveStrength": 2.499025231617599
        }
      },
      "name": "M_Texture",
      "pbrMetallicRoughness": {
        "baseColorTexture": {
          "index": 0
        },
        "metallicFactor": 0.0,
        "roughnessFactor": 0.6
      }
    },
    {
      "doubleSided": true,
      "name": "standardSurface1",
      "pbrMetallicRoughness": {
        "metallicFactor": 0.0,
        "roughnessFactor": 0.6
      }
    }
  ],
  "meshes": [
    {
      "name": "SM_Scene_M_Texture_0",
      "primitives": [
        {
          "attributes": {
            "NORMAL": 1,
            "POSITION": 0,
            "TEXCOORD_0": 2,
            "TEXCOORD_1": 3
          },
          "indices": 4,
          "material": 0,
          "mode": 4
        }
      ]
    },
    {
      "name": "SM_Scene_M_Texture_0",
      "primitives": [
        {
          "attributes": {
            "NORMAL": 6,
            "POSITION": 5,
            "TEXCOORD_0": 7,
            "TEXCOORD_1": 8
          },
          "indices": 9,
          "material": 0,
          "mode": 4
        }
      ]
    },
    {
      "name": "SM_Scene_standardSurface1_0",
      "primitives": [
        {
          "attributes": {
            "NORMAL": 11,
            "POSITION": 10,
            "TEXCOORD_0": 12
          },
          "indices": 13,
          "material": 1,
          "mode": 4
        }
      ]
    }
  ],
  "nodes": [
    {
      "children": [
        1
      ],
      "matrix": [
        1.0,
        0.0,
        0.0,
        0.0,
        0.0,
        2.220446049250313e-16,
        -1.0,
        0.0,
        0.0,
        1.0,
        2.220446049250313e-16,
        0.0,
        0.0,
        0.0,
        0.0,
        1.0
      ],
      "name": "Sketchfab_model"
    },
    {
      "children": [
        2
      ],
      "matrix": [
        0.009999999776482582,
        0.0,
        0.0,
        0.0,
        0.0,
        0.0,
        0.009999999776482582,
        0.0,
        0.0,
        -0.009999999776482582,
        0.0,
        0.0,
        0.0,
        0.0,
        0.0,
        1.0
      ],
      "name": "3ddeed90ab5e4ad589aeb02ad2b3ea7e.fbx"
    },
    {
      "children": [
        3,
        5
      ],
      "name": "RootNode"
    },
    {
      "children": [
        4
      ],
      "matrix": [
        0.0,
        1.0,
        0.0,
        0.0,
        0.0,
        0.0,
        1.0,
        0.0,
        1.0,
        0.0,
        0.0,
        0.0,
        0.0,
        -1000.0999755859375,
        0.0,
        1.0
      ],
      "name": "bottom"
    },
    {
      "name": "Object_4"
    },
    {
      "children": [
        6,
        7,
        8
      ],
      "name": "SM_Scene"
    },
    {
      "mesh": 0,
      "name": "SM_Scene_M_Texture_0"
    },
    {
      "mesh": 1,
      "name": "SM_Scene_M_Texture_0"
    },
    {
      "mesh": 2,
      "name": "SM_Scene_standardSurface1_0"
    }
  ],
  "samplers": [
    {
      "magFilter": 9729,
      "minFilter": 9987,
      "wrapS": 10497,
      "wrapT": 10497
    }
  ],
  "scene": 0,
  "scenes": [
    {
      "name": "Sketchfab_Scene",
      "nodes": [
        0
      ]
    }
  ],
  "textures": [
    {
      "sampler": 0,
      "source": 0
    },
    {
      "sampler": 0,
      "source": 1
    }
  ]
}
